<svg width="19" height="14" viewBox="0 0 19 14" fill="none" xmlns="http://www.w3.org/2000/svg">
<path d="M0 14V8C0 7.55 0.0870834 7.14167 0.26125 6.775C0.435417 6.40833 0.665 6.08333 0.95 5.8V3C0.95 2.16667 1.22708 1.45833 1.78125 0.875C2.33542 0.291667 3.00833 0 3.8 0H7.6C7.96417 0 8.30458 0.0709998 8.62125 0.213C8.93792 0.355 9.23083 0.550667 9.5 0.8C9.76917 0.55 10.0621 0.354333 10.3787 0.213C10.6954 0.0716665 11.0358 0.000666667 11.4 0H15.2C15.9917 0 16.6646 0.291667 17.2188 0.875C17.7729 1.45833 18.05 2.16667 18.05 3V5.8C18.335 6.08333 18.5646 6.40833 18.7388 6.775C18.9129 7.14167 19 7.55 19 8V14H17.1V12H1.9V14H0ZM10.45 5H16.15V3C16.15 2.71667 16.0588 2.479 15.8764 2.287C15.694 2.095 15.4685 1.99933 15.2 2H11.4C11.1308 2 10.905 2.096 10.7226 2.288C10.5402 2.48 10.4494 2.71733 10.45 3V5ZM2.85 5H8.55V3C8.55 2.71667 8.4588 2.479 8.2764 2.287C8.094 2.095 7.86853 1.99933 7.6 2H3.8C3.53083 2 3.30505 2.096 3.12265 2.288C2.94025 2.48 2.84937 2.71733 2.85 3V5Z" fill="#2F4858"/>
</svg>
