<svg width="25" height="23" viewBox="0 0 25 23" fill="none" xmlns="http://www.w3.org/2000/svg">
<path d="M16.6453 6.06868C16.4384 6.06868 16.2592 5.98861 16.108 5.82846C15.9568 5.66832 15.8811 5.47867 15.8811 5.25953C15.8811 4.82966 15.9568 4.41665 16.108 4.0205C16.2592 3.62435 16.4821 3.27456 16.7767 2.97113L17.72 1.95968C18.0225 1.63939 18.1737 1.25588 18.1737 0.809158C18.1737 0.590011 18.2494 0.400365 18.4006 0.240219C18.5519 0.0800729 18.731 0 18.9379 0C19.1449 0 19.324 0.0800729 19.4753 0.240219C19.6265 0.400365 19.7021 0.590011 19.7021 0.809158C19.7021 1.23902 19.6265 1.65203 19.4753 2.04818C19.324 2.44433 19.1011 2.79412 18.8066 3.09756L17.8633 4.109C17.5608 4.4293 17.4095 4.8128 17.4095 5.25953C17.4095 5.47867 17.3339 5.66832 17.1827 5.82846C17.0314 5.98861 16.8523 6.06868 16.6453 6.06868ZM12.0601 6.06868C11.8531 6.06868 11.674 5.98861 11.5228 5.82846C11.3715 5.66832 11.2959 5.47867 11.2959 5.25953C11.2959 4.82966 11.3715 4.41665 11.5228 4.0205C11.674 3.62435 11.8969 3.27456 12.1915 2.97113L13.1348 1.95968C13.4373 1.63939 13.5885 1.25588 13.5885 0.809158C13.5885 0.590011 13.6641 0.400365 13.8154 0.240219C13.9666 0.0800729 14.1457 0 14.3527 0C14.5597 0 14.7388 0.0800729 14.89 0.240219C15.0413 0.400365 15.1169 0.590011 15.1169 0.809158C15.1169 1.23902 15.0413 1.65203 14.89 2.04818C14.7388 2.44433 14.5159 2.79412 14.2214 3.09756L13.2781 4.109C12.9756 4.4293 12.8243 4.8128 12.8243 5.25953C12.8243 5.47867 12.7487 5.66832 12.5974 5.82846C12.4462 5.98861 12.2671 6.06868 12.0601 6.06868ZM21.9948 8.29387C22.3132 8.29387 22.6117 8.35708 22.8903 8.48351C23.1689 8.60994 23.4117 8.78273 23.6187 9.00188C23.8257 9.22103 23.9889 9.4781 24.1083 9.77311C24.2277 10.0681 24.2874 10.3842 24.2874 10.7213V15.5763C24.2874 15.9134 24.2277 16.2295 24.1083 16.5245C23.9889 16.8195 23.8257 17.0766 23.6187 17.2957C23.4117 17.5149 23.1689 17.6877 22.8903 17.8141C22.6117 17.9405 22.3132 18.0038 21.9948 18.0038H21.3141C21.2982 18.0628 21.2863 18.1175 21.2783 18.1681C21.2704 18.2187 21.2544 18.2693 21.2306 18.3198V18.8129C21.2306 19.3692 21.1311 19.8918 20.932 20.3807C20.733 20.8695 20.4584 21.2994 20.1081 21.6703C19.7579 22.0411 19.3519 22.3319 18.8902 22.5426C18.4285 22.7533 17.9349 22.8587 17.4095 22.8587H12.8243C12.2034 22.8587 11.6302 22.7112 11.1048 22.4162C10.5795 22.1212 10.1416 21.7293 9.79137 21.2404H3.82102C3.29563 21.2404 2.80208 21.135 2.34038 20.9243C1.87867 20.7136 1.47269 20.427 1.12243 20.0646C0.772165 19.7021 0.497529 19.2723 0.298517 18.775C0.0995058 18.2777 0 17.7509 0 17.1946V16.3854H3.05682C3.05682 15.7196 3.17623 15.0916 3.41504 14.5016C3.65385 13.9116 3.98421 13.3975 4.40612 12.9592C4.82802 12.5209 5.31361 12.1711 5.86288 11.9098C6.41215 11.6485 7.00521 11.5221 7.64205 11.5305C7.88086 11.5305 8.11171 11.5516 8.33461 11.5937C8.5575 11.6359 8.78039 11.6949 9.00328 11.7707V6.67555H21.2306V8.29387H21.9948ZM7.64205 13.1488C7.22014 13.1488 6.8261 13.2331 6.45992 13.4017C6.09374 13.5703 5.76736 13.802 5.48078 14.097C5.1942 14.3921 4.97529 14.7334 4.82404 15.1211C4.67279 15.5089 4.59319 15.9303 4.58523 16.3854H9.00328V13.5028C8.79631 13.3932 8.58138 13.309 8.35849 13.25C8.13559 13.191 7.89678 13.1572 7.64205 13.1488ZM3.82102 19.6221H9.08687C9.03115 19.3776 9.00328 19.1079 9.00328 18.8129V18.0038H1.65976C1.73936 18.2398 1.85081 18.4547 1.9941 18.6486C2.13738 18.8424 2.30057 19.0152 2.48366 19.1669C2.66676 19.3186 2.87373 19.4282 3.10458 19.4956C3.33543 19.5631 3.57425 19.6052 3.82102 19.6221ZM9.34957 20.4692V20.4818L9.36151 20.5071V20.4944L9.34957 20.4692ZM19.7021 18.8129V8.29387H10.5317V18.8129C10.5317 19.1501 10.5914 19.4661 10.7108 19.7612C10.8302 20.0562 10.9934 20.3132 11.2004 20.5324C11.4073 20.7515 11.6501 20.9243 11.9288 21.0507C12.2074 21.1772 12.5059 21.2404 12.8243 21.2404H17.4095C17.728 21.2404 18.0265 21.1772 18.3051 21.0507C18.5837 20.9243 18.8265 20.7515 19.0335 20.5324C19.2404 20.3132 19.4036 20.0562 19.523 19.7612C19.6424 19.4661 19.7021 19.1501 19.7021 18.8129ZM22.759 15.5763V10.7213C22.759 10.5022 22.6833 10.3125 22.5321 10.1524C22.3808 9.99226 22.2017 9.91218 21.9948 9.91218H21.2306V16.3854H21.9948C22.2017 16.3854 22.3808 16.3054 22.5321 16.1452C22.6833 15.9851 22.759 15.7954 22.759 15.5763Z" fill="#2F4858"/>
</svg>
