<svg width="12" height="12" viewBox="0 0 12 12" fill="none" xmlns="http://www.w3.org/2000/svg">
<path fill-rule="evenodd" clip-rule="evenodd" d="M10.2857 11.2532C10.2395 11.2606 10.1921 11.2644 10.1438 11.2644L1.62423 11.2644C1.1334 11.2644 0.735499 10.8666 0.735499 10.3757L0.7355 1.85619C0.7355 1.80787 0.739355 1.76046 0.746776 1.71423C0.323419 1.78219 7.83487e-07 2.14917 7.44801e-07 2.59169L0 11.1112C-7.76951e-08 11.602 0.397897 11.9999 0.888728 11.9999L9.40826 11.9999C9.85078 11.9999 10.2178 11.6765 10.2857 11.2532Z" fill="#FFFCF8"/>
<path fill-rule="evenodd" clip-rule="evenodd" d="M1.28577 0.877724C1.28577 0.392971 1.67874 0 2.16349 0H11.1223C11.6071 0 12.0001 0.39297 12.0001 0.877724V9.83656C12.0001 10.3213 11.6071 10.7143 11.1223 10.7143H2.16349C1.67874 10.7143 1.28577 10.3213 1.28577 9.83656V0.877724ZM8.29243 6.50726L11.0315 10.1392H7.55147H5.55333H3.64597L5.59872 7.50605L6.5608 8.80336L8.29243 6.50726Z" fill="#FFFCF8"/>
</svg>
