<svg width="113" height="38" viewBox="0 0 113 38" fill="none" xmlns="http://www.w3.org/2000/svg">
<path d="M10.125 13.9C11.725 13.9 13.0083 14.4333 13.975 15.5C14.9417 16.55 15.425 18 15.425 19.85V28H11.175V20.425C11.175 19.4917 10.9333 18.7667 10.45 18.25C9.96667 17.7333 9.31667 17.475 8.5 17.475C7.68333 17.475 7.03333 17.7333 6.55 18.25C6.06667 18.7667 5.825 19.4917 5.825 20.425V28H1.55V9.5H5.825V15.925C6.25833 15.3083 6.85 14.8167 7.6 14.45C8.35 14.0833 9.19167 13.9 10.125 13.9ZM24.7457 28.2C23.379 28.2 22.1457 27.9083 21.0457 27.325C19.9624 26.7417 19.104 25.9083 18.4707 24.825C17.854 23.7417 17.5457 22.475 17.5457 21.025C17.5457 19.5917 17.8624 18.3333 18.4957 17.25C19.129 16.15 19.9957 15.3083 21.0957 14.725C22.1957 14.1417 23.429 13.85 24.7957 13.85C26.1624 13.85 27.3957 14.1417 28.4957 14.725C29.5957 15.3083 30.4624 16.15 31.0957 17.25C31.729 18.3333 32.0457 19.5917 32.0457 21.025C32.0457 22.4583 31.7207 23.725 31.0707 24.825C30.4374 25.9083 29.5624 26.7417 28.4457 27.325C27.3457 27.9083 26.1124 28.2 24.7457 28.2ZM24.7457 24.5C25.5624 24.5 26.254 24.2 26.8207 23.6C27.404 23 27.6957 22.1417 27.6957 21.025C27.6957 19.9083 27.4124 19.05 26.8457 18.45C26.2957 17.85 25.6124 17.55 24.7957 17.55C23.9624 17.55 23.2707 17.85 22.7207 18.45C22.1707 19.0333 21.8957 19.8917 21.8957 21.025C21.8957 22.1417 22.1624 23 22.6957 23.6C23.2457 24.2 23.929 24.5 24.7457 24.5ZM38.5887 9.5V28H34.3137V9.5H38.5887ZM43.8367 12.6C43.0867 12.6 42.4701 12.3833 41.9867 11.95C41.5201 11.5 41.2867 10.95 41.2867 10.3C41.2867 9.63333 41.5201 9.08333 41.9867 8.65C42.4701 8.2 43.0867 7.975 43.8367 7.975C44.5701 7.975 45.1701 8.2 45.6367 8.65C46.1201 9.08333 46.3617 9.63333 46.3617 10.3C46.3617 10.95 46.1201 11.5 45.6367 11.95C45.1701 12.3833 44.5701 12.6 43.8367 12.6ZM45.9617 14.05V28H41.6867V14.05H45.9617ZM48.2098 21C48.2098 19.5667 48.4764 18.3083 49.0098 17.225C49.5598 16.1417 50.3014 15.3083 51.2348 14.725C52.1681 14.1417 53.2098 13.85 54.3598 13.85C55.2764 13.85 56.1098 14.0417 56.8598 14.425C57.6264 14.8083 58.2264 15.325 58.6598 15.975V9.5H62.9348V28H58.6598V26C58.2598 26.6667 57.6848 27.2 56.9348 27.6C56.2014 28 55.3431 28.2 54.3598 28.2C53.2098 28.2 52.1681 27.9083 51.2348 27.325C50.3014 26.725 49.5598 25.8833 49.0098 24.8C48.4764 23.7 48.2098 22.4333 48.2098 21ZM58.6598 21.025C58.6598 19.9583 58.3598 19.1167 57.7598 18.5C57.1764 17.8833 56.4598 17.575 55.6098 17.575C54.7598 17.575 54.0348 17.8833 53.4348 18.5C52.8514 19.1 52.5598 19.9333 52.5598 21C52.5598 22.0667 52.8514 22.9167 53.4348 23.55C54.0348 24.1667 54.7598 24.475 55.6098 24.475C56.4598 24.475 57.1764 24.1667 57.7598 23.55C58.3598 22.9333 58.6598 22.0917 58.6598 21.025ZM65.1775 21C65.1775 19.5667 65.4442 18.3083 65.9775 17.225C66.5275 16.1417 67.2692 15.3083 68.2025 14.725C69.1359 14.1417 70.1775 13.85 71.3275 13.85C72.3109 13.85 73.1692 14.05 73.9025 14.45C74.6525 14.85 75.2275 15.375 75.6275 16.025V14.05H79.9025V28H75.6275V26.025C75.2109 26.675 74.6275 27.2 73.8775 27.6C73.1442 28 72.2859 28.2 71.3025 28.2C70.1692 28.2 69.1359 27.9083 68.2025 27.325C67.2692 26.725 66.5275 25.8833 65.9775 24.8C65.4442 23.7 65.1775 22.4333 65.1775 21ZM75.6275 21.025C75.6275 19.9583 75.3275 19.1167 74.7275 18.5C74.1442 17.8833 73.4275 17.575 72.5775 17.575C71.7275 17.575 71.0025 17.8833 70.4025 18.5C69.8192 19.1 69.5275 19.9333 69.5275 21C69.5275 22.0667 69.8192 22.9167 70.4025 23.55C71.0025 24.1667 71.7275 24.475 72.5775 24.475C73.4275 24.475 74.1442 24.1667 74.7275 23.55C75.3275 22.9333 75.6275 22.0917 75.6275 21.025Z" fill="#FFFCF8"/>
<path d="M111.7 20.8C111.7 21.2 111.675 21.6167 111.625 22.05H101.95C102.017 22.9167 102.292 23.5833 102.775 24.05C103.275 24.5 103.883 24.725 104.6 24.725C105.667 24.725 106.408 24.275 106.825 23.375H111.375C111.142 24.2917 110.717 25.1167 110.1 25.85C109.5 26.5833 108.742 27.1583 107.825 27.575C106.908 27.9917 105.883 28.2 104.75 28.2C103.383 28.2 102.167 27.9083 101.1 27.325C100.033 26.7417 99.2 25.9083 98.6 24.825C98 23.7417 97.7 22.475 97.7 21.025C97.7 19.575 97.9917 18.3083 98.575 17.225C99.175 16.1417 100.008 15.3083 101.075 14.725C102.142 14.1417 103.367 13.85 104.75 13.85C106.1 13.85 107.3 14.1333 108.35 14.7C109.4 15.2667 110.217 16.075 110.8 17.125C111.4 18.175 111.7 19.4 111.7 20.8ZM107.325 19.675C107.325 18.9417 107.075 18.3583 106.575 17.925C106.075 17.4917 105.45 17.275 104.7 17.275C103.983 17.275 103.375 17.4833 102.875 17.9C102.392 18.3167 102.092 18.9083 101.975 19.675H107.325Z" fill="#FFFCF8"/>
<path d="M95.362 26.9515C95.3834 27.2635 95.27 27.5426 95.0217 27.7888C94.8077 28.0084 94.5295 28.127 94.1871 28.1446C93.0342 28.2118 91.9256 28.1765 90.8611 28.0387C89.8271 27.9048 88.7857 27.7082 87.737 27.4487C87.0189 27.263 86.3175 27.1877 85.6326 27.2227C84.9822 27.2313 84.3567 27.1658 83.7563 27.0262C83.3993 26.9181 83.1148 26.7267 82.903 26.4519C82.6951 26.1467 82.5005 25.8586 82.3191 25.5878C82.1721 25.2904 82.105 24.9725 82.1179 24.634C82.1308 24.2956 82.2614 24.0032 82.5097 23.7571C82.7963 23.454 83.1266 23.1721 83.5005 22.9113C83.9088 22.624 84.2846 22.348 84.6281 22.0832C84.6929 22.0607 84.7689 22.0705 84.8562 22.1127C84.9435 22.155 85.0044 22.1628 85.0387 22.1364C85.3783 21.902 85.7178 21.6677 86.0574 21.4333C86.4009 21.1686 86.7444 20.9038 87.0879 20.639C87.4658 20.3478 87.9731 20.0115 88.61 19.6301C89.2813 19.2222 89.8441 18.8158 90.2985 18.4108C90.4703 18.2784 90.5224 18.1151 90.4547 17.9208C90.4215 17.7 90.2832 17.5739 90.0399 17.5424C89.5533 17.4794 88.9887 17.4218 88.3461 17.3695C87.7074 17.2868 87.1276 17.2272 86.6066 17.1907C86.2417 17.1435 85.8581 17.0011 85.456 16.7635C85.0617 16.465 84.6674 16.1666 84.2731 15.8682C83.9092 15.5737 83.6504 15.1846 83.4965 14.7008C83.4672 14.4497 83.5291 14.2103 83.6823 13.9827C83.8658 13.7591 84.1116 13.6518 84.4197 13.6607C85.9561 13.7359 87.675 13.8348 89.5763 13.9572C91.4777 14.0797 93.194 14.3173 94.7254 14.6702C95.3945 14.7568 95.8609 15.0955 96.1245 15.6862C96.3696 16.1818 96.495 16.6464 96.5007 17.08C96.5104 17.4833 96.2134 17.986 95.6097 18.5881C95.3653 18.8039 95.0086 19.0514 94.5395 19.3309C94.0744 19.5799 93.7559 19.7706 93.5842 19.903C93.3859 20.001 93.2868 20.05 93.2868 20.05C93.2908 20.0196 93.1838 20.1294 92.9659 20.3795C92.9619 20.4099 92.8206 20.5462 92.5419 20.7885C92.2671 21.0003 91.9923 21.2121 91.7175 21.4239C91.4731 21.6396 91.3509 21.7475 91.3509 21.7475C91.2253 21.7622 90.8745 21.9641 90.2984 22.3534C89.7262 22.7122 89.2017 23.0618 88.7247 23.402C88.5569 23.504 88.4896 23.6654 88.5229 23.8861C88.5601 24.0765 88.6852 24.1854 88.898 24.213C89.3886 24.2456 89.8983 24.2497 90.4271 24.2254C90.9864 24.205 91.498 24.194 91.9621 24.1922C92.487 24.1983 92.9505 24.3202 93.3527 24.5578C93.8382 24.868 94.2874 25.2199 94.7003 25.6135C95.1475 25.9806 95.3681 26.4266 95.362 26.9515Z" fill="#BB2649"/>
</svg>
