<svg width="25" height="17" viewBox="0 0 25 17" fill="none" xmlns="http://www.w3.org/2000/svg">
<path d="M0.34628 8.73638C0.115427 9.27581 0 9.83632 0 10.4179V11.3282C0 11.6485 0.0398023 11.9561 0.119407 12.2512C0.199012 12.5462 0.318419 12.8201 0.477628 13.073C0.636837 13.3258 0.827888 13.5534 1.05078 13.7557C1.27367 13.958 1.52045 14.1265 1.7911 14.2614C1.91051 14.5564 2.06574 14.8219 2.25679 15.0579C2.44784 15.2939 2.66676 15.492 2.91353 15.6521C3.1603 15.8123 3.423 15.9429 3.70162 16.0441C3.98023 16.1452 4.27477 16.1916 4.58523 16.1832C5.1345 16.1832 5.64397 16.0399 6.11364 15.7533C6.5833 15.4667 6.95745 15.0706 7.23606 14.5648H15.6901C15.9687 15.0706 16.3428 15.4667 16.8125 15.7533C17.2822 16.0399 17.7916 16.1832 18.3409 16.1832C18.8902 16.1832 19.3996 16.0399 19.8693 15.7533C20.339 15.4667 20.7131 15.0706 20.9917 14.5648H22.9261C23.1411 14.5648 23.3401 14.5227 23.5232 14.4384C23.7063 14.3541 23.8655 14.2403 24.0008 14.097C24.1361 13.9538 24.2476 13.781 24.3351 13.5787C24.4227 13.3764 24.4625 13.1657 24.4545 12.9465V9.70989C24.4545 9.04402 24.3351 8.41608 24.0963 7.82607C23.8575 7.23606 23.5311 6.72191 23.1172 6.28362C22.7032 5.84532 22.2177 5.49553 21.6604 5.23424C21.1032 4.97295 20.5062 4.84652 19.8693 4.85495H19.4275L15.511 0.708013C15.296 0.480437 15.0493 0.307649 14.7706 0.189646C14.492 0.0716442 14.1975 0.00842873 13.887 0H3.05682V1.61832H3.4031L0.34628 8.73638ZM18.3409 14.5648C18.126 14.5648 17.927 14.5227 17.7439 14.4384C17.5608 14.3541 17.4016 14.2403 17.2662 14.097C17.1309 13.9538 17.0195 13.781 16.9319 13.5787C16.8443 13.3764 16.8045 13.1657 16.8125 12.9465C16.8125 12.7189 16.8523 12.5082 16.9319 12.3144C17.0115 12.1205 17.119 11.9519 17.2543 11.8086C17.3896 11.6654 17.5528 11.5474 17.7439 11.4546C17.9349 11.3619 18.1339 11.3198 18.3409 11.3282C18.5558 11.3282 18.7549 11.3704 18.9379 11.4546C19.121 11.5389 19.2802 11.6527 19.4156 11.796C19.5509 11.9393 19.6623 12.1121 19.7499 12.3144C19.8375 12.5167 19.8773 12.7274 19.8693 12.9465C19.8693 13.1741 19.8295 13.3848 19.7499 13.5787C19.6703 13.7725 19.5628 13.9411 19.4275 14.0844C19.2922 14.2277 19.129 14.3457 18.9379 14.4384C18.7469 14.5311 18.5479 14.5733 18.3409 14.5648ZM10.6989 1.61832H13.887C14.094 1.61832 14.2731 1.69839 14.4244 1.85853L17.2543 4.85495H10.6989V1.61832ZM9.17045 4.85495H3.68967L4.8718 2.08611C4.93549 1.94282 5.03101 1.82903 5.15838 1.74475C5.28575 1.66046 5.42506 1.61832 5.5763 1.61832H9.17045V4.85495ZM4.58523 14.5648C4.37029 14.5648 4.17128 14.5227 3.98819 14.4384C3.8051 14.3541 3.64589 14.2403 3.51056 14.097C3.37524 13.9538 3.26379 13.781 3.17622 13.5787C3.08866 13.3764 3.04886 13.1657 3.05682 12.9465C3.05682 12.7189 3.09662 12.5082 3.17622 12.3144C3.25583 12.1205 3.3633 11.9519 3.49862 11.8086C3.63395 11.6654 3.79714 11.5474 3.98819 11.4546C4.17924 11.3619 4.37825 11.3198 4.58523 11.3282C4.80016 11.3282 4.99917 11.3704 5.18226 11.4546C5.36535 11.5389 5.52456 11.6527 5.65989 11.796C5.79522 11.9393 5.90666 12.1121 5.99423 12.3144C6.08179 12.5167 6.1216 12.7274 6.11364 12.9465C6.11364 13.1741 6.07383 13.3848 5.99423 13.5787C5.91462 13.7725 5.80716 13.9411 5.67183 14.0844C5.5365 14.2277 5.37331 14.3457 5.18226 14.4384C4.99121 14.5311 4.7922 14.5733 4.58523 14.5648Z" fill="#2F4858"/>
</svg>
