<svg width="20" height="15" viewBox="0 0 20 15" fill="none" xmlns="http://www.w3.org/2000/svg">
<path d="M12.7899 5.55579C14.5907 5.55579 15.6989 3.60097 15.6989 2.36635C15.6989 1.3375 15.0062 0.102885 13.621 0.102885C11.8202 0.102885 10.712 2.0577 10.712 3.29232C10.712 4.32117 11.4047 5.55579 12.7899 5.55579ZM7.52603 5.55579C8.91126 5.55579 9.60387 4.32117 9.60387 3.29232C9.60387 1.95481 8.49569 0 6.6949 0C5.30967 0 4.61706 1.23462 4.61706 2.26347C4.47854 3.60097 5.58672 5.55579 7.52603 5.55579ZM17.7767 4.52694C15.9759 4.52694 14.7292 6.37887 14.7292 7.71637C14.7292 8.64234 15.2833 9.5683 16.53 9.5683C18.3308 9.5683 19.5775 7.71637 19.5775 6.37887C19.5775 5.4529 18.8849 4.52694 17.7767 4.52694ZM5.72524 7.71637C5.72524 6.37887 4.34002 4.52694 2.67775 4.52694C1.43104 4.52694 0.876953 5.4529 0.876953 6.37887C0.876953 7.71637 2.26218 9.5683 3.92445 9.5683C5.17115 9.5683 5.72524 8.64234 5.72524 7.71637ZM10.158 7.5106C7.38751 7.5106 3.6474 10.8029 3.6474 13.0664C3.6474 14.0952 4.61706 14.4039 5.72524 14.4039C7.38751 14.4039 8.63421 13.5808 10.158 13.5808C11.5432 13.5808 12.7899 14.4039 14.3136 14.4039C15.4218 14.4039 16.6685 14.1981 16.6685 13.0664C16.6685 10.8029 12.9284 7.5106 10.158 7.5106Z" fill="#2F4858"/>
</svg>
