<svg width="25" height="19" viewBox="0 0 25 19" fill="none" xmlns="http://www.w3.org/2000/svg">
<path d="M6.47026 12.2453L4.33049 9.92567C5.33245 8.86477 6.50864 8.02433 7.85908 7.40433C9.20951 6.78434 10.6656 6.47398 12.2273 6.47326C13.7896 6.47326 15.2461 6.78794 16.5965 7.41728C17.9469 8.04662 19.1228 8.90074 20.1241 9.97961L17.9843 12.2453C17.2371 11.4541 16.371 10.8337 15.386 10.3842C14.401 9.93466 13.3481 9.70989 12.2273 9.70989C11.1064 9.70989 10.0535 9.93466 9.06856 10.3842C8.08359 10.8337 7.21749 11.4541 6.47026 12.2453ZM2.13977 7.66003L0 5.39439C1.56237 3.70414 3.38797 2.38252 5.4768 1.42951C7.56562 0.476504 9.81578 0 12.2273 0C14.6388 0 16.8889 0.476504 18.9777 1.42951C21.0666 2.38252 22.8922 3.70414 24.4545 5.39439L22.3148 7.66003C21.0071 6.27547 19.4913 5.19192 17.7672 4.40937C16.0432 3.62683 14.1965 3.23591 12.2273 3.23663C10.2573 3.23663 8.41033 3.6279 6.68628 4.41045C4.96223 5.193 3.44673 6.27619 2.13977 7.66003ZM12.2273 18.3409L15.819 14.5109C15.3605 14.0254 14.8256 13.6431 14.2142 13.364C13.6028 13.085 12.9405 12.9458 12.2273 12.9465C11.514 12.9465 10.8517 13.0861 10.2403 13.3651C9.62898 13.6442 9.09403 14.0261 8.63551 14.5109L12.2273 18.3409Z" fill="#2F4858"/>
</svg>
