<svg width="34" height="22" viewBox="0 0 34 22" fill="none" xmlns="http://www.w3.org/2000/svg">
<rect y="6" width="33" height="4" rx="2" fill="#BB2649"/>
<rect x="8" width="25" height="4" rx="2" fill="#BB2649"/>
<path d="M14.713 11.682V18H13.174V14.211L11.761 18H10.519L9.097 14.202V18H7.558V11.682H9.376L11.149 16.056L12.904 11.682H14.713ZM17.3587 12.915V14.193H19.4197V15.381H17.3587V16.767H19.6897V18H15.8197V11.682H19.6897V12.915H17.3587ZM26.3409 18H24.8019L22.2279 14.103V18H20.6889V11.682H22.2279L24.8019 15.597V11.682H26.3409V18ZM28.9684 11.682V15.462C28.9684 15.84 29.0614 16.131 29.2474 16.335C29.4334 16.539 29.7064 16.641 30.0664 16.641C30.4264 16.641 30.7024 16.539 30.8944 16.335C31.0864 16.131 31.1824 15.84 31.1824 15.462V11.682H32.7214V15.453C32.7214 16.017 32.6014 16.494 32.3614 16.884C32.1214 17.274 31.7974 17.568 31.3894 17.766C30.9874 17.964 30.5374 18.063 30.0394 18.063C29.5414 18.063 29.0944 17.967 28.6984 17.775C28.3084 17.577 27.9994 17.283 27.7714 16.893C27.5434 16.497 27.4294 16.017 27.4294 15.453V11.682H28.9684Z" fill="#FFFCF8"/>
</svg>
